<svg width="198" height="42" viewBox="0 0 198 42" fill="none" xmlns="http://www.w3.org/2000/svg">
<path d="M64.8492 7.08259C64.8492 8.04784 64.6676 8.96083 64.3045 9.82156C63.9475 10.6823 63.4305 11.4385 62.7535 12.0902C62.0519 12.7603 61.261 13.2737 60.3809 13.6303C59.5008 13.9869 58.59 14.1652 57.6483 14.1652C56.8236 14.1652 56.0143 14.0269 55.2203 13.7502C54.4326 13.4674 53.7094 13.0647 53.0509 12.5421C52.2015 11.8658 51.5491 11.0573 51.0937 10.1167C50.6444 9.17602 50.4198 8.16466 50.4198 7.08259C50.4198 6.1112 50.5983 5.20128 50.9552 4.35284C51.3122 3.49826 51.8353 2.73897 52.5246 2.07498C53.2016 1.41713 53.9864 0.906842 54.8788 0.544105C55.7773 0.181368 56.7005 0 57.6483 0C58.59 0 59.5039 0.181368 60.3902 0.544105C61.2826 0.906842 62.0704 1.41713 62.7535 2.07498C63.4367 2.73897 63.9567 3.49826 64.3137 4.35284C64.6707 5.20743 64.8492 6.11734 64.8492 7.08259ZM57.6483 11.5922C58.8731 11.5922 59.8824 11.1649 60.6764 10.3103C61.4765 9.44961 61.8765 8.37369 61.8765 7.08259C61.8765 5.80379 61.4734 4.72788 60.6671 3.85485C59.8609 2.98182 58.8546 2.54531 57.6483 2.54531C56.4236 2.54531 55.4081 2.98182 54.6018 3.85485C53.7956 4.72173 53.3924 5.79764 53.3924 7.08259C53.3924 8.38599 53.7894 9.46498 54.5833 10.3196C55.3773 11.168 56.3989 11.5922 57.6483 11.5922Z" fill="#2A7EBC"/>
<path d="M70.1852 11.3709H71.7915C73.3055 11.3709 74.4072 11.0266 75.0965 10.338C75.792 9.64942 76.1397 8.55813 76.1397 7.06415C76.1397 5.57631 75.792 4.4881 75.0965 3.79952C74.4072 3.10478 73.3055 2.75742 71.7915 2.75742H70.1852V11.3709ZM67.2956 13.8055V0.30433H70.9791C72.4316 0.30433 73.5763 0.405774 74.4133 0.60866C75.2504 0.811547 75.9858 1.14969 76.6198 1.62309C77.4383 2.23175 78.0568 3.00027 78.4754 3.92863C78.9 4.85084 79.1124 5.90216 79.1124 7.08259C79.1124 8.28147 78.8969 9.34509 78.4661 10.2734C78.0353 11.1957 77.4045 11.958 76.5736 12.5605C75.9581 13.0032 75.2719 13.3229 74.5149 13.5196C73.764 13.7102 72.6624 13.8055 71.2099 13.8055H67.2956Z" fill="#2A7EBC"/>
<path d="M95.3696 7.08259C95.3696 8.04784 95.1881 8.96083 94.8249 9.82156C94.468 10.6823 93.951 11.4385 93.274 12.0902C92.5724 12.7603 91.7815 13.2737 90.9014 13.6303C90.0213 13.9869 89.1104 14.1652 88.1688 14.1652C87.3441 14.1652 86.5348 14.0269 85.7408 13.7502C84.953 13.4674 84.2299 13.0647 83.5713 12.5421C82.722 11.8658 82.0696 11.0573 81.6142 10.1167C81.1649 9.17602 80.9403 8.16466 80.9403 7.08259C80.9403 6.1112 81.1187 5.20128 81.4757 4.35284C81.8327 3.49826 82.3558 2.73897 83.0451 2.07498C83.7221 1.41713 84.5068 0.906842 85.3992 0.544105C86.2978 0.181368 87.221 0 88.1688 0C89.1104 0 90.0244 0.181368 90.9106 0.544105C91.8031 0.906842 92.5908 1.41713 93.274 2.07498C93.9572 2.73897 94.4772 3.49826 94.8342 4.35284C95.1911 5.20743 95.3696 6.11734 95.3696 7.08259ZM88.1688 11.5922C89.3935 11.5922 90.4029 11.1649 91.1968 10.3103C91.9969 9.44961 92.397 8.37369 92.397 7.08259C92.397 5.80379 91.9938 4.72788 91.1876 3.85485C90.3814 2.98182 89.3751 2.54531 88.1688 2.54531C86.944 2.54531 85.9285 2.98182 85.1223 3.85485C84.316 4.72173 83.9129 5.79764 83.9129 7.08259C83.9129 8.38599 84.3099 9.46498 85.1038 10.3196C85.8978 11.168 86.9194 11.5922 88.1688 11.5922Z" fill="#2A7EBC"/>
<path d="M97.8161 13.8055V0.30433H100.816L106.799 8.16158C106.971 8.38291 107.159 8.69647 107.362 9.10224C107.571 9.50186 107.786 9.97527 108.008 10.5224C107.94 10.1228 107.891 9.72627 107.86 9.33279C107.83 8.93931 107.814 8.44747 107.814 7.85725V0.30433H110.574V13.8055H107.74L101.592 5.80072C101.42 5.57939 101.232 5.26891 101.029 4.86928C100.826 4.46351 100.61 3.98088 100.383 3.42141C100.45 3.80874 100.499 4.20222 100.53 4.60184C100.561 4.99532 100.576 5.49331 100.576 6.09583V13.8055H97.8161Z" fill="#2A7EBC"/>
<path d="M118.634 2.75742V13.8055H115.735V2.75742H112.43V0.30433H121.957V2.75742H118.634Z" fill="#2A7EBC"/>
<path d="M137.338 7.08259C137.338 8.04784 137.156 8.96083 136.793 9.82156C136.436 10.6823 135.919 11.4385 135.242 12.0902C134.54 12.7603 133.749 13.2737 132.869 13.6303C131.989 13.9869 131.078 14.1652 130.137 14.1652C129.312 14.1652 128.503 14.0269 127.709 13.7502C126.921 13.4674 126.198 13.0647 125.539 12.5421C124.69 11.8658 124.038 11.0573 123.582 10.1167C123.133 9.17602 122.908 8.16466 122.908 7.08259C122.908 6.1112 123.087 5.20128 123.444 4.35284C123.801 3.49826 124.324 2.73897 125.013 2.07498C125.69 1.41713 126.475 0.906842 127.367 0.544105C128.266 0.181368 129.189 0 130.137 0C131.078 0 131.992 0.181368 132.879 0.544105C133.771 0.906842 134.559 1.41713 135.242 2.07498C135.925 2.73897 136.445 3.49826 136.802 4.35284C137.159 5.20743 137.338 6.11734 137.338 7.08259ZM130.137 11.5922C131.361 11.5922 132.371 11.1649 133.165 10.3103C133.965 9.44961 134.365 8.37369 134.365 7.08259C134.365 5.80379 133.962 4.72788 133.156 3.85485C132.349 2.98182 131.343 2.54531 130.137 2.54531C128.912 2.54531 127.896 2.98182 127.09 3.85485C126.284 4.72173 125.881 5.79764 125.881 7.08259C125.881 8.38599 126.278 9.46498 127.072 10.3196C127.866 11.168 128.887 11.5922 130.137 11.5922Z" fill="#2A7EBC"/>
<path d="M139.784 13.8055V0.30433H142.674V11.3524H147.289V13.8055H139.784Z" fill="#2A7EBC"/>
<path d="M162.264 7.08259C162.264 8.04784 162.082 8.96083 161.719 9.82156C161.362 10.6823 160.845 11.4385 160.168 12.0902C159.466 12.7603 158.675 13.2737 157.795 13.6303C156.915 13.9869 156.004 14.1652 155.063 14.1652C154.238 14.1652 153.429 14.0269 152.635 13.7502C151.847 13.4674 151.124 13.0647 150.465 12.5421C149.616 11.8658 148.964 11.0573 148.508 10.1167C148.059 9.17602 147.834 8.16466 147.834 7.08259C147.834 6.1112 148.013 5.20128 148.37 4.35284C148.727 3.49826 149.25 2.73897 149.939 2.07498C150.616 1.41713 151.401 0.906842 152.293 0.544105C153.192 0.181368 154.115 0 155.063 0C156.004 0 156.918 0.181368 157.805 0.544105C158.697 0.906842 159.485 1.41713 160.168 2.07498C160.851 2.73897 161.371 3.49826 161.728 4.35284C162.085 5.20743 162.264 6.11734 162.264 7.08259ZM155.063 11.5922C156.287 11.5922 157.297 11.1649 158.091 10.3103C158.891 9.44961 159.291 8.37369 159.291 7.08259C159.291 5.80379 158.888 4.72788 158.082 3.85485C157.275 2.98182 156.269 2.54531 155.063 2.54531C153.838 2.54531 152.822 2.98182 152.016 3.85485C151.21 4.72173 150.807 5.79764 150.807 7.08259C150.807 8.38599 151.204 9.46498 151.998 10.3196C152.792 11.168 153.813 11.5922 155.063 11.5922Z" fill="#2A7EBC"/>
<path d="M171.422 6.68604H177.579C177.591 6.76597 177.598 6.85204 177.598 6.94426C177.604 7.03648 177.607 7.17789 177.607 7.36848C177.607 9.3912 177.028 11.0297 175.871 12.2839C174.714 13.5381 173.219 14.1652 171.385 14.1652C169.286 14.1652 167.556 13.4981 166.196 12.164C164.836 10.8237 164.156 9.12376 164.156 7.06415C164.156 5.02298 164.839 3.33534 166.206 2.0012C167.572 0.667067 169.298 0 171.385 0C172.486 0 173.496 0.230553 174.413 0.691659C175.33 1.15277 176.148 1.84135 176.868 2.75742L174.92 4.19607C174.434 3.59356 173.923 3.16012 173.388 2.89575C172.852 2.62523 172.234 2.48997 171.532 2.48997C170.197 2.48997 169.129 2.90497 168.329 3.73496C167.529 4.56495 167.129 5.67468 167.129 7.06415C167.129 8.42902 167.529 9.5326 168.329 10.3749C169.135 11.211 170.184 11.6291 171.477 11.6291C172.425 11.6291 173.194 11.4078 173.785 10.9651C174.376 10.5163 174.671 9.93223 174.671 9.2129V9.06535H171.422V6.68604Z" fill="#2A7EBC"/>
<path d="M179.961 13.8055V0.30433H182.851V13.8055H179.961Z" fill="#2A7EBC"/>
<path d="M192.941 8.6688L191.427 4.30673C191.384 4.17762 191.328 3.95629 191.261 3.64274C191.193 3.32919 191.122 2.94493 191.048 2.48997C190.968 2.92649 190.891 3.31997 190.818 3.67041C190.744 4.0147 190.688 4.24525 190.651 4.36207L189.193 8.6688H192.941ZM184.337 13.8055L189.479 0.30433H192.784L198 13.8055H194.713L193.615 10.9374H188.38L187.439 13.8055H184.337Z" fill="#2A7EBC"/>
<path d="M52.0136 41.4232V19.7703H56.6478V41.4232H52.0136Z" fill="#2A7EBC"/>
<path d="M61.6077 41.4232V19.7703H66.4196L76.0138 32.3716C76.2901 32.7265 76.5912 33.2294 76.9169 33.8802C77.2525 34.5211 77.598 35.2803 77.9533 36.1579C77.8447 35.517 77.7658 34.881 77.7164 34.2499C77.6671 33.6189 77.6424 32.8301 77.6424 31.8835V19.7703H82.0693V41.4232H77.5239L67.6633 28.5853C67.3869 28.2303 67.0859 27.7324 66.7601 27.0915C66.4344 26.4407 66.089 25.6667 65.7237 24.7694C65.8323 25.3906 65.9113 26.0217 65.9606 26.6626C66.01 27.2936 66.0347 28.0923 66.0347 29.0586V41.4232H61.6077Z" fill="#2A7EBC"/>
<path d="M94.9948 23.7045V41.4232H90.3458V23.7045H85.0453V19.7703H100.325V23.7045H94.9948Z" fill="#2A7EBC"/>
<path d="M103.33 41.4232V19.7703H116.093V23.6749H107.965V28.1268H116.093V32.061H107.965V37.489H116.093V41.4232H103.33Z" fill="#2A7EBC"/>
<path d="M131.417 30.0051H141.292C141.312 30.1333 141.322 30.2714 141.322 30.4193C141.332 30.5672 141.337 30.794 141.337 31.0996C141.337 34.3436 140.409 36.9713 138.553 38.9828C136.698 40.9943 134.299 42 131.358 42C127.992 42 125.218 40.9302 123.037 38.7905C120.856 36.641 119.765 33.9147 119.765 30.6115C119.765 27.338 120.86 24.6314 123.052 22.4917C125.243 20.3521 128.012 19.2822 131.358 19.2822C133.125 19.2822 134.743 19.652 136.214 20.3915C137.685 21.131 138.998 22.2354 140.152 23.7045L137.028 26.0118C136.249 25.0455 135.429 24.3504 134.571 23.9264C133.712 23.4925 132.72 23.2756 131.595 23.2756C129.453 23.2756 127.74 23.9412 126.457 25.2723C125.174 26.6034 124.532 28.3832 124.532 30.6115C124.532 32.8005 125.174 34.5704 126.457 35.9212C127.75 37.2622 129.433 37.9327 131.506 37.9327C133.026 37.9327 134.26 37.5777 135.207 36.8678C136.155 36.148 136.629 35.2113 136.629 34.0577V33.821H131.417V30.0051Z" fill="#2A7EBC"/>
<path d="M160.703 41.4232H155.358L149.658 31.3067V41.4232H145.024V19.7703H151.657C154.292 19.7703 156.266 20.2831 157.579 21.3085C158.892 22.3241 159.548 23.8574 159.548 25.9083C159.548 27.3971 159.099 28.6691 158.201 29.7241C157.302 30.7792 156.143 31.3954 154.721 31.5729L160.703 41.4232ZM149.658 28.9994H150.354C152.229 28.9994 153.468 28.7973 154.07 28.393C154.672 27.9789 154.973 27.264 154.973 26.2484C154.973 25.1835 154.647 24.4292 153.996 23.9855C153.354 23.532 152.14 23.3052 150.354 23.3052H149.658V28.9994Z" fill="#2A7EBC"/>
<path d="M174.635 33.185L172.207 26.1893C172.138 25.9822 172.049 25.6272 171.94 25.1244C171.832 24.6215 171.718 24.0053 171.6 23.2756C171.472 23.9757 171.348 24.6067 171.23 25.1687C171.111 25.7209 171.022 26.0907 170.963 26.278L168.624 33.185H174.635ZM160.836 41.4232L169.083 19.7703H174.383L182.749 41.4232H177.478L175.716 36.8234H167.321L165.811 41.4232H160.836Z" fill="#2A7EBC"/>
<path d="M185.029 41.4232V19.7703H189.663V37.489H197.066V41.4232H185.029Z" fill="#2A7EBC"/>
<path d="M29.776 4.93148C28.2646 6.04554 26.0369 5.88863 26.0369 5.88863C26.0369 5.88863 24.0424 6.04554 22.531 4.93148C21.6101 4.25267 20.5336 4.00571 19.3974 4.00571H0V4.93148H19.3974L19.7108 6.48488C21.5553 6.42608 25.9746 6.48488 25.9746 6.48488L25.7876 8.08537H18.9161L18.5265 6.76732H0V8.03829H18.1526L18.5265 9.40341H26.0369V11.1922H17.6384V9.40341H0V10.7528H15.9244V12.0709H26.0369V13.844H15.9244V12.5416H0V13.8596H14.5844V15.1934H26.0369V16.4957H14.1637V17.8608L24.3229 17.8393C24.3229 17.8393 25.4193 17.8218 26.0369 17.8393C28.2495 17.7766 29.5958 18.2531 30.3214 19.2417C30.8512 19.9634 31.6926 20.9049 30.8823 24.3255L27.3764 37.1451C26.5818 40.299 30.3214 40.3303 31.3965 37.9924L40.3871 20.8735C40.3871 20.8735 41.8206 16.7468 40.3871 14.5814C39.8028 13.6988 35.1828 5.74741 35.1828 5.74741C35.1828 5.74741 34.4038 4.00571 32.5028 4.00571C31.3666 4.00571 30.6969 4.25267 29.776 4.93148Z" fill="#2A7EBC"/>
<path d="M14.1637 16.4957V15.1934H0V16.4957H14.1637Z" fill="#2A7EBC"/>
<path d="M0 18.2531H14.1637L13.7118 19.5398H0V18.2531Z" fill="#2A7EBC"/>
<path d="M15.0051 19.5398H21.3603C20.9723 19.954 20.8004 20.6538 20.763 20.952H15.0051V19.5398Z" fill="#2A7EBC"/>
<path d="M0 20.952V22.2857H14.5844V20.952H0Z" fill="#2A7EBC"/>
<path d="M20.7326 22.2857H15.0051V24.0431H0V25.1572L15.9244 25.2984V23.5881H20.8874C20.7069 23.0357 20.709 22.4897 20.7326 22.2857Z" fill="#2A7EBC"/>
<path d="M15.9244 26.7419H0V28.0286H16.8126V26.7419H21.6787L21.2839 25.2984H15.9244V26.7419Z" fill="#2A7EBC"/>
<path d="M0 29.8331H16.8126C17.246 29.6778 17.346 29.277 17.2956 28.0286H22.0306C22.1814 28.5801 22.4168 28.7661 22.4168 29.4408H18.1214V30.7118H0V29.8331Z" fill="#2A7EBC"/>
<path d="M0 35.1837H19.4147V33.8029H23.6097L23.9873 35.1837H19.9133V36.4861H0V35.1837Z" fill="#2A7EBC"/>
<path d="M0 32.5162H18.1214V31.1354H22.8802L23.2578 32.5162H19.0252V33.8029H0V32.5162Z" fill="#2A7EBC"/>
<path d="M0 38.2748V39.6242H21.2533L23.388 37.8669C23.6097 37.5373 23.5438 37.2863 23.388 36.9411H20.334V38.2748H0Z" fill="#2A7EBC"/>
<path d="M0 36.9568V37.8669H15.8777C15.8777 37.3961 15.7685 37.1934 15.3791 36.9411L0 36.9568Z" fill="#2A7EBC"/>
<path d="M0 34.2893H15.0051V34.7287H0V34.2893Z" fill="#2A7EBC"/>
<path d="M0 31.5905H14.1637V32.0612H0V31.5905Z" fill="#2A7EBC"/>
<path d="M0 28.515H12.886V28.9858H0V28.515Z" fill="#2A7EBC"/>
<path d="M0 25.7848H11.4525V26.2869H0V25.7848Z" fill="#2A7EBC"/>
<path d="M10.1904 23.2115H0V22.7251H10.1904V23.2115Z" fill="#2A7EBC"/>
<path d="M0 19.9948H9.31781V20.544H0V19.9948Z" fill="#2A7EBC"/>
<path d="M0 16.9665H9.11525L8.63222 17.8393L0 17.8608V16.9665Z" fill="#2A7EBC"/>
<path d="M0 14.2519H9.95666L9.73851 14.7383H0V14.2519Z" fill="#2A7EBC"/>
<path d="M0 11.1922H11.9823L11.0474 12.0709H0V11.1922Z" fill="#2A7EBC"/>
<path d="M0 8.50902H13.7118L13.26 8.97975H0V8.50902Z" fill="#2A7EBC"/>
<path d="M0 5.44928H15.0051L14.5844 6.31228H0V5.44928Z" fill="#2A7EBC"/>
</svg>
